<?xml version="1.0" encoding="UTF-8" standalone="yes"?>
<svg xmlns="http://www.w3.org/2000/svg" xmlns:xlink="http://www.w3.org/1999/xlink" width="500px" height="500px" viewBox="0 0 500 500" version="1.1" fill="#ffffff">
  <g id="surface166947">
    <path style=" stroke:none;fill-rule:nonzero;fill:#1b1f73;fill-opacity:1;" d="M 275 30 C 251.613281 30 232.835938 48.304688 230.78125 71.171875 C 230.273438 72.382812 230.007812 73.683594 230 75 C 230 99.730469 250.257812 120 275 120 C 299.742188 120 320 99.730469 320 75 C 320 50.269531 299.742188 30 275 30 Z M 371.816406 40.078125 C 369.175781 39.929688 366.484375 40.191406 363.789062 40.957031 C 353.019531 44.011719 346.25 53.367188 342.871094 63.730469 C 339.492188 74.09375 339.03125 86.28125 341.71875 98.769531 C 344.40625 111.257812 349.769531 121.953125 357.226562 129.589844 C 362.144531 134.625 368.507812 138.394531 375.351562 139.550781 L 385.859375 190.742188 C 385.449219 190.816406 385.042969 190.804688 384.628906 190.898438 L 385.625 190.722656 L 325 198.4375 L 267.382812 144.121094 C 266.109375 142.734375 253.980469 130 234.980469 130 C 226.207031 130 217.933594 130.796875 210.214844 134.804688 C 202.496094 138.8125 196.359375 145.753906 191.210938 155.234375 C 179.984375 175.902344 172.65625 196.238281 168.066406 211.679688 C 165.773438 219.402344 164.160156 225.898438 163.105469 230.605469 C 162.050781 235.3125 161.714844 236.910156 161.425781 239.082031 C 160.039062 249.144531 159.613281 259.871094 160.585938 270.878906 L 160.566406 270.839844 C 161.851562 286.175781 165.855469 302.167969 173.730469 318.144531 C 173.765625 318.230469 173.789062 318.316406 173.847656 318.457031 C 174.019531 318.886719 174.277344 319.523438 174.609375 320.351562 C 175.273438 322.003906 176.210938 324.386719 177.34375 327.226562 C 179.613281 332.90625 182.632812 340.460938 185.644531 348.027344 C 190.453125 360.109375 193.53125 367.804688 195.273438 372.1875 L 138.847656 428.789062 C 127.152344 440.351562 127.15625 459.539062 138.808594 471.132812 C 144.628906 477.0625 152.40625 480 159.941406 480 C 167.519531 480 175.359375 477.054688 181.191406 471.074219 L 251.015625 401.171875 L 250.9375 401.230469 C 258.65625 393.640625 261.546875 382.445312 258.691406 372.070312 L 258.691406 372.03125 L 254.628906 347.34375 L 293.144531 367.773438 L 310.722656 446.445312 C 313.710938 460.449219 326.257812 470 340 470 C 342.351562 470 344.445312 469.691406 346.386719 469.277344 C 346.414062 469.269531 346.4375 469.265625 346.464844 469.257812 C 362.507812 465.691406 372.847656 449.609375 369.257812 433.613281 L 349.277344 344.042969 C 347.925781 337.757812 344.542969 332.160156 339.902344 327.96875 C 339.398438 327.511719 338.847656 327.105469 338.261719 326.757812 L 256.582031 278.886719 C 255.367188 278.152344 254.007812 277.6875 252.597656 277.519531 C 253.8125 266.921875 255.574219 255.902344 258.085938 246.699219 C 259.800781 240.410156 261.953125 237.425781 264.023438 233.730469 L 304.550781 256.542969 C 304.589844 256.570312 304.628906 256.59375 304.667969 256.621094 C 308.78125 258.855469 313.460938 260 318.144531 260 C 320.765625 260 319.730469 259.90625 320.429688 259.824219 C 321.128906 259.742188 322.046875 259.632812 323.164062 259.492188 C 325.402344 259.210938 328.460938 258.816406 332.089844 258.339844 C 339.347656 257.386719 348.851562 256.113281 358.300781 254.84375 C 377.199219 252.308594 395.878906 249.765625 395.878906 249.765625 C 396.035156 249.742188 396.191406 249.71875 396.347656 249.6875 L 396.835938 249.609375 C 397.027344 249.574219 397.214844 249.535156 397.402344 249.492188 C 413.195312 245.632812 422.828125 229.414062 419.257812 213.554688 C 417.5625 206.054688 413.09375 199.828125 407.265625 195.664062 L 394.765625 134.726562 C 400.683594 130.277344 404.757812 123.558594 407.128906 116.289062 C 410.507812 105.925781 410.96875 93.738281 408.28125 81.25 C 405.59375 68.761719 400.230469 58.066406 392.773438 50.429688 C 387.179688 44.699219 379.734375 40.523438 371.816406 40.078125 Z M 275 50 C 288.9375 50 300 61.070312 300 75 C 300 88.929688 288.9375 100 275 100 C 261.0625 100 250 88.929688 250 75 C 250 61.070312 261.0625 50 275 50 Z M 371.035156 60 C 372.972656 60.101562 375.363281 61.222656 378.457031 64.394531 C 382.582031 68.621094 386.730469 76.15625 388.730469 85.449219 C 390.730469 94.742188 390.183594 103.761719 388.125 110.078125 C 386.066406 116.394531 382.96875 119.199219 380.761719 119.824219 C 378.558594 120.449219 375.667969 119.832031 371.542969 115.605469 C 367.417969 111.378906 363.269531 103.84375 361.269531 94.550781 C 359.269531 85.257812 359.816406 76.238281 361.875 69.921875 C 363.933594 63.605469 367.03125 60.820312 369.238281 60.195312 C 369.789062 60.039062 370.390625 59.964844 371.035156 60 Z M 110 120 C 98.953125 120 90 128.953125 90 140 C 90 151.046875 98.953125 160 110 160 C 121.046875 160 130 151.046875 130 140 C 130 128.953125 121.046875 120 110 120 Z M 234.980469 150 C 244.917969 150 253.183594 158.183594 253.183594 158.183594 C 253.335938 158.351562 253.492188 158.515625 253.652344 158.671875 L 314.726562 216.230469 C 316.902344 218.285156 319.882812 219.261719 322.851562 218.886719 L 388.144531 210.566406 C 388.472656 210.523438 388.796875 210.464844 389.121094 210.390625 C 393.679688 209.339844 398.410156 212.066406 399.746094 217.96875 C 400.972656 223.46875 397.664062 228.734375 392.734375 230 C 392.277344 230.0625 374.285156 232.515625 355.644531 235.019531 C 346.207031 236.285156 336.714844 237.546875 329.492188 238.496094 C 325.882812 238.96875 322.832031 239.375 320.664062 239.648438 C 319.578125 239.785156 318.707031 239.894531 318.125 239.960938 C 318.058594 239.96875 317.960938 239.957031 317.871094 239.960938 C 316.445312 239.921875 315.328125 239.648438 314.21875 239.042969 L 264.902344 211.289062 C 260.996094 209.089844 256.101562 209.761719 252.929688 212.929688 C 245.574219 220.285156 241.816406 230.320312 238.789062 241.425781 C 235.761719 252.53125 233.84375 264.8125 232.558594 276.386719 C 229.984375 299.53125 230 320 230 320 C 230 320.542969 230.046875 321.085938 230.136719 321.621094 L 238.945312 375.3125 C 239.035156 375.835938 239.164062 376.351562 239.335938 376.855469 C 240.542969 380.472656 239.597656 384.332031 236.914062 386.972656 C 236.894531 386.992188 236.875 387.011719 236.855469 387.03125 L 166.953125 457.03125 C 166.925781 457.058594 166.902344 457.082031 166.875 457.109375 C 164.90625 459.128906 162.542969 460 159.941406 460 C 157.339844 460 154.996094 459.132812 153.046875 457.128906 C 153 457.082031 152.957031 457.039062 152.910156 456.992188 C 148.847656 452.976562 148.847656 447.023438 152.910156 443.007812 C 152.921875 442.996094 152.9375 442.980469 152.949219 442.96875 L 214.0625 381.660156 C 216.878906 378.835938 217.746094 374.605469 216.269531 370.898438 C 216.269531 370.898438 210.246094 355.785156 204.21875 340.644531 C 201.203125 333.074219 198.191406 325.496094 195.917969 319.804688 C 194.78125 316.960938 193.835938 314.585938 193.164062 312.910156 C 192.828125 312.074219 192.574219 311.40625 192.382812 310.9375 C 192.289062 310.703125 192.214844 310.527344 192.148438 310.371094 C 192.117188 310.292969 192.078125 310.222656 192.03125 310.117188 C 192.007812 310.0625 191.996094 310.003906 191.933594 309.863281 C 191.90625 309.800781 191.859375 309.710938 191.777344 309.550781 L 191.757812 309.511719 C 184.964844 295.800781 181.613281 282.316406 180.507812 269.160156 C 180.507812 269.148438 180.507812 269.132812 180.507812 269.121094 C 179.679688 259.75 180.042969 250.5 181.25 241.777344 C 181.25 241.757812 181.25 241.738281 181.25 241.71875 C 181.058594 243.140625 181.652344 239.289062 182.617188 234.980469 C 183.582031 230.671875 185.097656 224.59375 187.246094 217.363281 C 191.542969 202.902344 198.4375 183.789062 208.769531 164.765625 C 212.769531 157.402344 216.003906 154.339844 219.433594 152.558594 C 222.863281 150.777344 227.503906 150 234.980469 150 Z M 250.800781 298.691406 L 326.738281 343.203125 C 328.269531 344.699219 329.308594 346.300781 329.726562 348.242188 C 329.734375 348.269531 329.738281 348.292969 329.746094 348.320312 L 349.746094 437.96875 C 349.746094 437.976562 349.746094 437.980469 349.746094 437.988281 C 350.941406 443.296875 347.683594 448.480469 342.148438 449.726562 C 342.148438 449.726562 342.128906 449.746094 342.128906 449.746094 C 341.296875 449.917969 340.429688 450 340 450 C 335.34375 450 331.285156 447.003906 330.273438 442.265625 C 330.265625 442.238281 330.261719 442.214844 330.253906 442.1875 L 311.660156 358.90625 C 311.023438 356.050781 309.167969 353.617188 306.582031 352.246094 L 258.222656 326.601562 C 256.027344 325.445312 253.480469 325.144531 251.074219 325.761719 L 250.039062 319.414062 C 250.039062 319.054688 250.113281 310.445312 250.800781 298.691406 Z M 250.800781 298.691406 "/>
  </g>
</svg>
