<?xml version="1.0" encoding="UTF-8" standalone="yes"?>
<svg xmlns="http://www.w3.org/2000/svg" xmlns:xlink="http://www.w3.org/1999/xlink" width="500px" height="500px" viewBox="0 0 500 500" version="1.1" fill="#ffffff">
  <g id="surface166907">
    <path style=" stroke:none;fill-rule:nonzero;fill:#1b1f73;fill-opacity:1;" d="M 372.421875 19.726562 C 366.914062 19.882812 362.382812 20.859375 358.90625 22.03125 C 354.335938 23.632812 350.976562 26.015625 350.976562 26.015625 C 350.625 26.289062 350.273438 26.601562 349.921875 26.953125 L 117.539062 260.3125 C 107.65625 270.234375 107.65625 286.484375 117.578125 296.40625 L 125.625 304.492188 L 125.625 312.34375 C 125.625 320.3125 121.914062 327.96875 116.5625 333.28125 L 26.953125 422.929688 C 16.601562 433.242188 16.601562 449.765625 26.953125 460.078125 L 39.921875 473.085938 C 50.234375 483.398438 66.757812 483.398438 77.070312 473.085938 L 166.71875 383.4375 C 172.96875 377.1875 180.078125 374.375 188.632812 374.375 L 195.507812 374.375 L 203.59375 382.421875 C 213.515625 392.34375 229.765625 392.34375 239.6875 382.460938 L 239.726562 382.421875 L 473.046875 150.078125 C 473.398438 149.726562 473.710938 149.375 474.023438 149.023438 C 474.023438 149.023438 476.367188 145.664062 477.96875 141.09375 C 479.53125 136.484375 480.78125 129.921875 480.117188 121.757812 C 478.710938 105.507812 469.6875 83.554688 443.085938 56.953125 C 416.445312 30.3125 394.492188 21.289062 378.242188 19.921875 C 376.171875 19.726562 374.257812 19.6875 372.421875 19.726562 Z M 140 20 C 106.992188 20 80 46.992188 80 80 C 80 113.007812 106.992188 140 140 140 C 159.179688 140 176.289062 130.859375 187.304688 116.757812 C 188.710938 115.625 189.765625 114.101562 190.390625 112.382812 C 196.445312 103.046875 200 91.914062 200 80 C 200 46.992188 173.007812 20 140 20 Z M 376.5625 39.84375 C 387.03125 40.742188 404.570312 46.71875 428.90625 71.09375 C 453.28125 95.429688 459.257812 112.96875 460.15625 123.4375 C 460.585938 128.710938 459.804688 132.34375 459.023438 134.570312 C 458.320312 136.601562 458.164062 136.71875 458.125 136.757812 L 225.585938 368.28125 C 223.515625 370.351562 219.804688 370.351562 217.695312 368.28125 L 207.695312 358.28125 C 207.1875 357.578125 206.523438 356.914062 205.820312 356.40625 L 131.71875 282.304688 C 129.648438 280.195312 129.648438 276.484375 131.71875 274.414062 L 363.242188 41.875 C 363.28125 41.835938 363.398438 41.679688 365.429688 40.976562 C 367.65625 40.195312 371.289062 39.414062 376.5625 39.84375 Z M 140 40 C 162.226562 40 180 57.773438 180 80 C 180 87.34375 177.890625 94.140625 174.492188 100 C 166.914062 101.25 154.296875 100.15625 139.0625 84.921875 C 126.953125 72.8125 123.867188 62.929688 123.476562 55.507812 C 123.203125 49.296875 125.039062 44.921875 126.367188 42.5 C 130.625 40.976562 135.15625 40 140 40 Z M 104.21875 62.34375 C 106.171875 73.632812 112.265625 86.40625 124.921875 99.0625 C 134.6875 108.828125 144.648438 114.414062 153.90625 117.382812 C 149.570312 119.023438 144.921875 120 140 120 C 117.773438 120 100 102.226562 100 80 C 100 73.632812 101.601562 67.695312 104.21875 62.34375 Z M 144.335938 323.164062 L 176.992188 355.820312 C 167.929688 357.96875 159.453125 362.382812 152.578125 369.257812 L 62.929688 458.90625 C 61.25 460.585938 55.742188 460.585938 54.0625 458.90625 L 41.09375 445.9375 C 39.414062 444.257812 39.414062 438.75 41.09375 437.070312 L 130.742188 347.421875 C 137.070312 341.054688 142.109375 332.695312 144.335938 323.164062 Z M 144.335938 323.164062 "/>
  </g>
</svg>