<?xml version="1.0" encoding="UTF-8" standalone="yes"?>
<svg xmlns="http://www.w3.org/2000/svg" xmlns:xlink="http://www.w3.org/1999/xlink" width="500px" height="500px" viewBox="0 0 500 500" version="1.1" fill="#ffffff">
  <g id="surface110730">
    <path style=" stroke:none;fill-rule:nonzero;fill:#1b1f73;fill-opacity:1;" d="M 305 0 C 274.765625 0 250 24.726562 250 55 C 250 85.273438 274.765625 110 305 110 C 335.234375 110 360 85.273438 360 55 C 360 24.726562 335.234375 0 305 0 Z M 305 20 C 324.453125 20 340 35.546875 340 55 C 340 74.453125 324.453125 90 305 90 C 285.546875 90 270 74.453125 270 55 C 270 35.546875 285.546875 20 305 20 Z M 221.25 89.6875 C 219.101562 89.804688 217.8125 90 217.8125 90 C 217.695312 90 217.617188 90 217.5 90 C 217.5 90 106.5625 103.4375 68.4375 110 C 59.140625 111.601562 51.484375 114.765625 45.9375 119.375 C 40.390625 123.984375 36.757812 130.703125 37.1875 137.8125 C 37.617188 144.921875 42.1875 151.054688 48.125 154.6875 C 54.0625 158.320312 61.367188 160.117188 70 160 C 93.789062 159.648438 173.554688 159.921875 194.0625 160 C 185.234375 178.671875 133.398438 288.632812 113.75 331.25 C 110.117188 339.101562 109.140625 348.164062 111.5625 356.5625 C 113.984375 364.960938 120.15625 372.539062 129.375 376.5625 C 139.882812 381.171875 150.703125 379.882812 158.125 375.3125 C 165.546875 370.742188 170.039062 364.257812 173.4375 359.0625 C 175.703125 355.585938 182.226562 344.804688 186.875 337.1875 C 184.804688 342.8125 183.398438 347.03125 181.25 352.8125 C 173.007812 374.882812 164.296875 397.34375 157.5 415.3125 C 150.703125 433.28125 145.976562 445.546875 144.375 450.9375 C 141.757812 459.84375 141.132812 468.984375 144.0625 477.5 C 146.992188 486.015625 154.375 493.28125 164.0625 496.25 C 175.976562 499.882812 187.03125 497.109375 194.0625 491.25 C 201.09375 485.390625 204.492188 478.164062 206.875 472.5 C 211.484375 461.601562 311.796875 221.40625 318.75 204.6875 C 329.101562 209.492188 354.921875 221.835938 367.5 226.875 C 384.804688 233.789062 398.554688 225.664062 402.8125 221.875 C 404.882812 220.039062 418.476562 210 431.5625 200.3125 C 444.648438 190.625 457.421875 181.40625 464.0625 174.6875 C 469.453125 169.21875 474.804688 163.476562 477.8125 155.9375 C 480.820312 148.398438 479.53125 137.421875 472.5 130.625 C 465.039062 123.4375 454.765625 124.296875 448.75 126.25 C 442.734375 128.203125 438.4375 131.25 438.4375 131.25 C 438.4375 131.367188 438.4375 131.445312 438.4375 131.5625 L 383.75 173.4375 C 376.757812 168.398438 345.546875 146.132812 330 137.1875 C 310.625 126.015625 269.492188 103.671875 255.625 96.5625 C 242.1875 89.6875 227.695312 89.375 221.25 89.6875 Z M 219.6875 110 C 219.6875 110 220 110 220 110 C 220.507812 109.960938 236.09375 109.023438 246.5625 114.375 C 259.609375 121.054688 301.25 143.59375 320 154.375 C 333.867188 162.382812 378.125 193.75 378.125 193.75 C 381.640625 196.367188 386.484375 196.367188 390 193.75 L 450.3125 147.5 C 450.3125 147.5 452.421875 146.171875 455 145.3125 C 457.578125 144.453125 458.242188 144.53125 458.75 145 C 460.859375 147.070312 460.117188 145.820312 459.0625 148.4375 C 458.007812 151.054688 454.726562 155.859375 450 160.625 C 449.882812 160.625 449.804688 160.625 449.6875 160.625 C 446.171875 164.179688 432.65625 174.765625 419.6875 184.375 C 406.71875 193.984375 394.882812 202.265625 389.6875 206.875 C 387.460938 208.828125 385.546875 212.34375 375 208.125 C 362.1875 203.007812 317.5 182.1875 317.5 182.1875 C 315.039062 181.054688 312.1875 180.976562 309.648438 181.992188 C 307.109375 182.96875 305.078125 184.960938 304.0625 187.5 C 304.0625 187.5 192.65625 454.726562 188.4375 464.6875 C 186.367188 469.648438 183.671875 473.90625 181.25 475.9375 C 178.828125 477.96875 177.1875 479.375 170 477.1875 C 165.273438 475.742188 163.828125 473.90625 162.8125 470.9375 C 161.796875 467.96875 161.914062 463.085938 163.75 456.875 C 164.375 454.726562 169.492188 440.15625 176.25 422.1875 C 183.007812 404.21875 191.71875 381.835938 200 359.6875 C 208.28125 337.539062 216.25 315.742188 221.875 299.375 C 224.6875 291.210938 226.71875 284.492188 228.125 279.375 C 228.828125 276.835938 229.375 274.921875 229.6875 272.8125 C 229.84375 271.757812 230.15625 270.625 230 268.75 C 229.921875 267.8125 229.804688 266.679688 228.75 264.6875 C 227.695312 262.695312 224.6875 259.882812 221.25 259.375 C 216.953125 258.75 214.882812 260.234375 213.75 260.9375 C 212.617188 261.640625 212.109375 262.265625 211.5625 262.8125 C 210.46875 263.867188 209.648438 264.804688 208.75 265.9375 C 206.914062 268.242188 204.84375 271.171875 202.5 274.6875 C 197.773438 281.71875 191.992188 290.859375 185.9375 300.625 C 173.828125 320.15625 160.9375 341.875 156.875 348.125 C 154.023438 352.5 150.703125 356.328125 147.8125 358.125 C 144.921875 359.921875 143.046875 360.859375 137.5 358.4375 C 133.554688 356.71875 131.601562 354.257812 130.625 350.9375 C 129.648438 347.617188 130.195312 343.320312 131.875 339.6875 C 153.007812 293.828125 219.0625 154.375 219.0625 154.375 C 220.585938 151.25 220.390625 147.578125 218.515625 144.648438 C 216.679688 141.757812 213.476562 139.960938 210 140 C 210 140 97.851562 139.609375 70 140 C 64.257812 140.078125 60.195312 138.90625 58.4375 137.8125 C 57.578125 137.265625 57.265625 136.757812 57.1875 136.5625 C 57.1875 136.835938 56.796875 136.289062 58.75 134.6875 C 60.703125 133.085938 64.804688 131.171875 71.5625 130 C 107.695312 123.789062 219.21875 110.039062 219.6875 110 Z M 325 389.375 C 294.453125 389.375 269.375 414.453125 269.375 445 C 269.375 475.546875 294.453125 500.625 325 500.625 C 355.546875 500.625 380.625 475.546875 380.625 445 C 380.625 414.453125 355.546875 389.375 325 389.375 Z M 325 410.625 C 344.179688 410.625 359.375 425.820312 359.375 445 C 359.375 464.140625 344.179688 479.375 325 479.375 C 305.859375 479.375 290.625 464.140625 290.625 445 C 290.625 425.820312 305.859375 410.625 325 410.625 Z M 325 410.625 "/>
  </g>
</svg>